# xmcd CD database file
#
# Track frame offsets:
#	150
#	18715
#	38467
#	57532
#	83195
#	103275
#	123645
#	141290
#	162437
#	179237
#	198720
#	215722
#	234717
#
# Disc length: 3390 seconds
#
# Revision: 0
# Processed by: cddbd v1.4PL0 Copyright (c) Steve Scherf et al.
# Submitted via: CD2WAV32(EN) R3.17
#
DISCID=d00d3c0d
DTITLE=yeshemabeth - Let's Talk About It
DYEAR=1900
DGENRE=
TTITLE0=Let's Talk About It
TTITLE1=Untitled
TTITLE2=Shame
TTITLE3=Swept Away
TTITLE4=Love Me For A Reason
TTITLE5=Now and Forever
TTITLE6=I Love Ya
TTITLE7=Will You Still Love Me Tomorrow
TTITLE8=The Groove
TTITLE9=Street People
TTITLE10=Dancing In The Rain
TTITLE11=I Won't Give Up
TTITLE12=Baby
EXTD=
EXTT0=
EXTT1=
EXTT2=
EXTT3=
EXTT4=
EXTT5=
EXTT6=
EXTT7=
EXTT8=
EXTT9=
EXTT10=
EXTT11=
EXTT12=
PLAYORDER=
